<?xml version="1.0" encoding="UTF-8"?>
<!-- Generator: visioncortex VTracer -->
<svg id="svg" version="1.1" xmlns="http://www.w3.org/2000/svg" style="display: block; background: rgb(255, 255, 255);" viewBox="0 0 612 567"><path d="M0 0 C1.65 0.33 3.3 0.66 5 1 C4.67 1.99 4.34 2.98 4 4 C2.35 4.33 0.7 4.66 -1 5 C-0.67 3.35 -0.34 1.7 0 0 Z " transform="translate(114,528)" style="fill: #000000;"/><path d="M0 0 C0.93423645 3.01031744 1.04449911 3.86650268 0 7 C-2.82115184 8.07009208 -4.90544541 8 -8 8 C-8 8.66 -8 9.32 -8 10 C-9.98 10 -11.96 10 -14 10 C-13.67 8.68 -13.34 7.36 -13 6 C-12.34 6 -11.68 6 -11 6 C-10.54625 5.030625 -10.0925 4.06125 -9.625 3.0625 C-6.98485481 -1.91315824 -5.12905952 -1.00351164 0 0 Z " transform="translate(548,521)" style="fill: #000000;"/><path d="M0 0 C2.475 0.495 2.475 0.495 5 1 C5 1.99 5 2.98 5 4 C3.68 4.33 2.36 4.66 1 5 C0.67 3.35 0.34 1.7 0 0 Z " transform="translate(113,518)" style="fill: #000000;"/><path d="M0 0 C0.33 1.65 0.66 3.3 1 5 C-0.65 5.66 -2.3 6.32 -4 7 C-6 5 -6 5 -6.125 2.375 C-6.08375 1.59125 -6.0425 0.8075 -6 0 C-3.50907189 -1.24546405 -2.58919267 -0.7767578 0 0 Z " transform="translate(106,519)" style="fill: #000000;"/><path d="M0 0 C1.65 0 3.3 0 5 0 C5 0.66 5 1.32 5 2 C5.99 2 6.98 2 8 2 C8.33 2.99 8.66 3.98 9 5 C8.01 6.485 8.01 6.485 7 8 C6.34 8 5.68 8 5 8 C4.67 9.65 4.34 11.3 4 13 C2.68 13 1.36 13 0 13 C-0.66 13.66 -1.32 14.32 -2 15 C-7.34742404 19.06869221 -7.34742404 19.06869221 -10.375 18.75 C-10.91125 18.5025 -11.4475 18.255 -12 18 C-12.33 16.35 -12.66 14.7 -13 13 C-10.6875 11.875 -10.6875 11.875 -8 11 C-7.01 11.66 -6.02 12.32 -5 13 C-5.61875 11.948125 -5.61875 11.948125 -6.25 10.875 C-7 8 -7 8 -5.3125 4.6875 C-4.549375 3.800625 -3.78625 2.91375 -3 2 C-2.01 2 -1.02 2 0 2 C0 1.34 0 0.68 0 0 Z " transform="translate(525,517)" style="fill: #000000;"/><path d="M0 0 C1.65 0 3.3 0 5 0 C5.33 0.66 5.66 1.32 6 2 C6.66 2 7.32 2 8 2 C8 4.64 8 7.28 8 10 C6.35 10.33 4.7 10.66 3 11 C2.67 11.99 2.34 12.98 2 14 C1.01 14.495 1.01 14.495 0 15 C0.20625 15.78375 0.4125 16.5675 0.625 17.375 C0.74875 18.24125 0.8725 19.1075 1 20 C-1.5654594 22.5654594 -3.47686668 22.54046087 -7 23 C-7.66 22.01 -8.32 21.02 -9 20 C-12.72614153 21.11854586 -12.72614153 21.11854586 -15 24 C-15.75 21.75 -15.75 21.75 -16 19 C-14.0625 16.75 -14.0625 16.75 -12 15 C-12 14.67 -12 14.34 -12 14 C-11.3125 11.5 -11.3125 11.5 -10 9 C-7.87387453 8.32586265 -6.22091319 8 -4 8 C-3.67 6.35 -3.34 4.7 -3 3 C-2.34 3 -1.68 3 -1 3 C-0.67 2.01 -0.34 1.02 0 0 Z M1 10 C2 12 2 12 2 12 Z " transform="translate(508,514)" style="fill: #000000;"/><path d="M0 0 C1.32 0 2.64 0 4 0 C4 1.65 4 3.3 4 5 C2.68 5 1.36 5 0 5 C-1 3 -1 3 0 0 Z " transform="translate(499,514)" style="fill: #000000;"/><path d="M0 0 C0.66 0 1.32 0 2 0 C2.33 1.98 2.66 3.96 3 6 C0.01758453 6.77321882 -2.97580475 7.41196203 -6 8 C-6.33 6.68 -6.66 5.36 -7 4 C-4 3 -4 3 -2 4 C-1.34 2.68 -0.68 1.36 0 0 Z " transform="translate(133,513)" style="fill: #000000;"/><path d="M0 0 C2.375 0.25 2.375 0.25 5 1 C6.375 2.75 6.375 2.75 7 5 C6.625 7.75 6.625 7.75 6 10 C4.35 9.67 2.7 9.34 1 9 C-1.125 2.25 -1.125 2.25 0 0 Z " transform="translate(298,478)" style="fill: #000000;"/><path d="M0 0 C1.32 0.33 2.64 0.66 4 1 C3.34 1 2.68 1 2 1 C2 1.66 2 2.32 2 3 C2.66 3 3.32 3 4 3 C3.67 3.99 3.34 4.98 3 6 C3 5.34 3 4.68 3 4 C2.34 4 1.68 4 1 4 C0.67 4.66 0.34 5.32 0 6 C0 4.02 0 2.04 0 0 Z " transform="translate(285,317)" style="fill: #000000;"/><path d="M0 0 C3.82623068 1.27541023 5.87740859 3.75678342 8.0859375 6.98828125 C9.7298604 10.6063167 8.96378758 13.2091022 8 17 C6 19 6 19 3.5 19.25 C1 19 1 19 -1 17 C-1.73828125 13.84765625 -1.73828125 13.84765625 -2.3125 10.0625 C-2.51488281 8.81597656 -2.71726562 7.56945312 -2.92578125 6.28515625 C-3 3 -3 3 -1.54296875 1.05859375 C-1.03378906 0.70925781 -0.52460938 0.35992187 0 0 Z " transform="translate(298,310)" style="fill: #000000;"/><path d="M0 0 C2.421875 0.08203125 2.421875 0.08203125 5 1 C8.68900228 5.33376153 12.14158999 11.19481058 12 17 C10.875 18.9375 10.875 18.9375 9 20 C6.5625 20.125 6.5625 20.125 4 19 C1.25610734 15.03659949 -0.36763229 11.80599456 -1 7 C-1.226875 6.113125 -1.45375 5.22625 -1.6875 4.3125 C-1.790625 3.549375 -1.89375 2.78625 -2 2 C-1.34 1.34 -0.68 0.68 0 0 Z " transform="translate(312,307)" style="fill: #000000;"/><path d="M0 0 C0.21192221 5.19209404 -0.4087311 9.126739 -2 14 C-2.66 14 -3.32 14 -4 14 C-4.66 15.32 -5.32 16.64 -6 18 C-9.875 17.125 -9.875 17.125 -11 16 C-10.68255432 9.96853214 -9.35804841 5.0814242 -6 0 C-3.50907189 -1.24546405 -2.58919267 -0.7767578 0 0 Z " transform="translate(439,221)" style="fill: #000000;"/><path d="M0 0 C1.9375 0.375 1.9375 0.375 4 1 C6.33760277 5.67520554 5.41227209 12.22712019 4 17.125 C3.67 18.07375 3.34 19.0225 3 20 C1.35 20.33 -0.3 20.66 -2 21 C-4.29129523 15.74349918 -4.23261074 11.4880526 -3 6 C-1.4375 2.4375 -1.4375 2.4375 0 0 Z " transform="translate(197,217)" style="fill: #000000;"/><path d="M0 0 C-0.33 0.99 -0.66 1.98 -1 3 C-0.938125 3.969375 -0.87625 4.93875 -0.8125 5.9375 C-0.71731666 11.47003155 -2.66218472 17.04289336 -5 22 C-5.99 22.33 -6.98 22.66 -8 23 C-8 23.66 -8 24.32 -8 25 C-9.32 25 -10.64 25 -12 25 C-14.16389998 18.1528022 -10.90628442 11.20888035 -8 5 C-7.34 5 -6.68 5 -6 5 C-5.8453125 4.0409375 -5.8453125 4.0409375 -5.6875 3.0625 C-5.460625 2.381875 -5.23375 1.70125 -5 1 C-2 0 -2 0 0 0 Z " transform="translate(193,217)" style="fill: #000000;"/><path d="M0 0 C1.32 0.33 2.64 0.66 4 1 C4.59367814 7.68815528 2.48630656 12.79313092 0 18.9375 C-0.3815625 19.90751953 -0.763125 20.87753906 -1.15625 21.87695312 C-2.09368529 24.25569517 -3.04176468 26.62957812 -4 29 C-5.98 28.34 -7.96 27.68 -10 27 C-9.01752927 16.58581023 -7.06764207 7.98254719 0 0 Z " transform="translate(425,214)" style="fill: #000000;"/><path d="M0 0 C0.99 0.33 1.98 0.66 3 1 C4.59588543 5.7969347 3.12993481 9.24205782 1.25 13.6875 C0.98445313 14.36361328 0.71890625 15.03972656 0.4453125 15.73632812 C-0.99889618 19.25921581 -1.76040313 20.84026875 -5 23 C-7.6875 22.625 -7.6875 22.625 -10 22 C-10.72698641 15.31172502 -8.52489128 10.63982605 -5 5 C-3.42909945 3.09793663 -1.88039291 1.61176535 0 0 Z " transform="translate(414,213)" style="fill: #000000;"/><path d="M0 0 C0.33 0.66 0.66 1.32 1 2 C1.66 2 2.32 2 3 2 C3 2.99 3 3.98 3 5 C2.34 5 1.68 5 1 5 C1.20882812 5.54785156 1.41765625 6.09570312 1.6328125 6.66015625 C2.38054954 11.42499123 -0.72324558 15.9390871 -3 20 C-4.56404649 21.97297509 -6.0524092 23.38628191 -8 25 C-8.66 24.67 -9.32 24.34 -10 24 C-10.65858867 15.83350048 -8.85781321 9.65022889 -3.5546875 3.2578125 C-2.1875 1.875 -2.1875 1.875 0 0 Z " transform="translate(180,213)" style="fill: #000000;"/><path d="M0 0 C5.05998896 -0.63249862 8.84617967 1.31786864 13 4 C19.09818739 10.25866601 20.03055295 17.69045388 21 26 C20.01 26 19.02 26 18 26 C18.5878125 27.11375 18.5878125 27.11375 19.1875 28.25 C19.455625 29.1575 19.72375 30.065 20 31 C18.6875 33.0625 18.6875 33.0625 17 35 C16.29485154 37.14733927 16.29485154 37.14733927 16 39 C13.525 39.495 13.525 39.495 11 40 C10.67 40.99 10.34 41.98 10 43 C8.23086176 43.22226864 6.45955629 43.42733873 4.6875 43.625 C3.70136719 43.74101562 2.71523438 43.85703125 1.69921875 43.9765625 C-1 44 -1 44 -4 42 C-4 42.66 -4 43.32 -4 44 C-7.65316671 42.75023244 -8.78065836 42.32901247 -11 39 C-11.99 39 -12.98 39 -14 39 C-18.39036548 30.81795525 -19.70599306 24.1503264 -18 15 C-15.68056803 8.67427646 -13.88633382 5.94316691 -8 3 C-7.67 2.34 -7.34 1.68 -7 1 C-5.68 1 -4.36 1 -3 1 C-3 1.66 -3 2.32 -3 3 C-2.34 3 -1.68 3 -1 3 C-0.67 2.01 -0.34 1.02 0 0 Z " transform="translate(380,173)" style="fill: #000000;"/><path d="M0 0 C6.47976976 3.1223761 10.46377578 8.35580696 13 15 C13.3125 18.375 13.3125 18.375 13 21 C13 21.99 13 22.98 13 24 C12.68911632 25.67099977 12.35919668 27.33871537 12 29 C11.34 29 10.68 29 10 29 C10.09861328 30.10408203 10.09861328 30.10408203 10.19921875 31.23046875 C9.95478011 34.62864514 9.04484126 35.78505179 6.8125 38.3125 C6.22082031 39.00988281 5.62914062 39.70726562 5.01953125 40.42578125 C2.51350847 42.37921874 1.10118978 42.3160107 -2 42 C-2.33 42.99 -2.66 43.98 -3 45 C-4.43655854 45.08131463 -5.8744483 45.13933559 -7.3125 45.1875 C-8.51326172 45.23970703 -8.51326172 45.23970703 -9.73828125 45.29296875 C-12.52022033 44.93261395 -13.18426236 44.05506122 -15 42 C-16.2375 41.566875 -16.2375 41.566875 -17.5 41.125 C-20.71128026 39.67992388 -21.53930515 38.15202573 -23 35 C-23 34.01 -23 33.02 -23 32 C-23.99 31.67 -24.98 31.34 -26 31 C-26 26.38 -26 21.76 -26 17 C-21 18 -21 18 -19 19 C-19 19.66 -19 20.32 -19 21 C-12.77585542 19.61189751 -12.77585542 19.61189751 -7 17 C-8.58578054 13.91190105 -9.53366584 12.25537347 -12.625 10.5625 C-15 9 -15 9 -15.8125 5.8125 C-15.874375 4.884375 -15.93625 3.95625 -16 3 C-14.68 2.67 -13.36 2.34 -12 2 C-12 1.34 -12 0.68 -12 0 C-8.21406592 -1.89296704 -4.00481779 -0.93230751 0 0 Z " transform="translate(234,173)" style="fill: #000000;"/><path d="M0 0 C1.2065625 0.2784375 1.2065625 0.2784375 2.4375 0.5625 C6.17532494 1.02153113 9.25366604 0.71792295 12.94921875 0.15625 C15 0 15 0 18 1 C19.67293936 0.69972883 21.33985384 0.36442233 23 0 C28.72850362 0 32.19070537 0.83960639 37 4 C37 3.34 37 2.68 37 2 C42.75 3.875 42.75 3.875 45 5 C45 4.34 45 3.68 45 3 C47.34134676 3.54031079 49.54418536 4.19348813 51.8125 5 C55.0303629 6.10648652 55.0303629 6.10648652 58.625 6.5 C62 7 62 7 64.1875 8.125 C65.95689835 9.24069444 65.95689835 9.24069444 67.73046875 8.41015625 C71.04136075 7.81180227 73.07488094 8.98228837 76.125 10.3125 C77.17945313 10.76238281 78.23390625 11.21226563 79.3203125 11.67578125 C82 13 82 13 84 15 C85.32 15 86.64 15 88 15 C89.34977849 15.63270867 90.68352881 16.30062468 92 17 C92.94746094 17.18755859 92.94746094 17.18755859 93.9140625 17.37890625 C96.40843931 18.12161395 97.52431607 19.19275935 99.375 21 C102.52159581 23.84208654 104.72267169 24.60210899 109 25 C109.66 25.66 110.32 26.32 111 27 C111.804375 27.103125 112.60875 27.20625 113.4375 27.3125 C116.92348116 28.24776324 117.19689038 29.9948173 119 33 C121.59122743 33.88658466 121.59122743 33.88658466 124 34 C124.33 35.32 124.66 36.64 125 38 C126.65 38 128.3 38 130 38 C130.185625 38.598125 130.37125 39.19625 130.5625 39.8125 C131.93814036 42.36424596 131.93814036 42.36424596 135.5 43.375 C139 45 139 45 140.4375 48.1875 C140.623125 49.115625 140.80875 50.04375 141 51 C142.32 51 143.64 51 145 51 C145 52.32 145 53.64 145 55 C146.65 55.33 148.3 55.66 150 56 C150.33 56.99 150.66 57.98 151 59 C151.66 59 152.32 59 153 59 C153 59.66 153 60.32 153 61 C153.639375 61.103125 154.27875 61.20625 154.9375 61.3125 C155.618125 61.539375 156.29875 61.76625 157 62 C157.33 62.99 157.66 63.98 158 65 C158.99 65.33 159.98 65.66 161 66 C162.1875 68.0625 162.1875 68.0625 163 70 C163.66 69.67 164.32 69.34 165 69 C169 74.75 169 74.75 169 77 C169.66 77 170.32 77 171 77 C171.81837442 78.41328129 172.62946219 79.83078346 173.4375 81.25 C173.88996094 82.03890625 174.34242188 82.8278125 174.80859375 83.640625 C175.90549211 85.81284339 176.63596258 87.60042943 177 90 C176.67 90.66 176.34 91.32 176 92 C176.598125 91.773125 177.19625 91.54625 177.8125 91.3125 C180 91 180 91 181.8125 92.125 C183 94 183 94 182.6875 96.6875 C182.3471875 97.8321875 182.3471875 97.8321875 182 99 C182.5775 99.020625 183.155 99.04125 183.75 99.0625 C187.30304327 100.54293469 188.31861355 103.74069703 190 107 C190.74821322 108.20944054 191.49815569 109.41781336 192.25 110.625 C193.93398036 113.87267641 194.43192183 115.43664491 194 119 C195.32 119.33 196.64 119.66 198 120 C197.67 121.32 197.34 122.64 197 124 C197.99 124.33 198.98 124.66 200 125 C201.77924576 127.52840187 202.00514415 128.87654046 201.875 132 C201.65393634 135.11424728 201.65393634 135.11424728 204 136.875 C206.33292853 139.35373656 206.27296086 139.97807709 206.25 143.25 C206.1675 144.4875 206.085 145.725 206 147 C206.99 147.33 207.98 147.66 209 148 C209.16276042 149.98567708 209.32552083 151.97135417 209.48828125 153.95703125 C210.11475097 156.4581279 211.1664315 157.23484824 213 159 C214.9989145 163.08973311 216.37289731 166.594464 215.1875 171.0625 C214.795625 171.701875 214.40375 172.34125 214 173 C214.99 173.33 215.98 173.66 217 174 C218.31035007 177.17242648 219 179.55881664 219 183 C219.64669414 184.34313399 220.31903578 185.67391178 221 187 C222.4284706 190.46914289 223.78027114 193.87388959 224.5 197.5625 C224.93179025 200.18432553 224.93179025 200.18432553 226.5 203.0625 C228.41405622 207.27710457 228.41428952 211.48406914 228.68359375 216.05078125 C229.11752239 220.09542475 230.41200618 223.27166667 232 227 C232 227.66 232 228.32 232 229 C234.475 229.99 234.475 229.99 237 231 C237 232.32 237 233.64 237 235 C238.0828125 235.2784375 238.0828125 235.2784375 239.1875 235.5625 C242.60651068 237.30999435 243.7444533 239.24841436 245.80078125 242.39453125 C247.26271587 244.35171408 248.81636807 244.98617089 251 246 C251.33333333 247.33333333 251.66666667 248.66666667 252 250 C253.32506097 250.68296094 254.66014993 251.34652926 256 252 C257.41033639 253.08037089 258.78514808 254.20836088 260.125 255.375 C261.14980469 256.25285156 261.14980469 256.25285156 262.1953125 257.1484375 C264.01262072 259.01294853 264.86813058 260.68661777 266 263 C268.05000871 263.80528889 268.05000871 263.80528889 270 264 C270 264.99 270 265.98 270 267 C270.8971875 267.4021875 270.8971875 267.4021875 271.8125 267.8125 C274.01054464 269.00572423 275.24678871 270.24678871 277 272 C277.845625 272.495 278.69125 272.99 279.5625 273.5 C282 275 282 275 284 278 C286.05925139 278.72382467 286.05925139 278.72382467 288 279 C288.1546875 279.9590625 288.1546875 279.9590625 288.3125 280.9375 C288.539375 281.618125 288.76625 282.29875 289 283 C289.99 283.33 290.98 283.66 292 284 C292.66 284.66 293.32 285.32 294 286 C294.70125 286.66 295.4025 287.32 296.125 288 C298 290 298 290 298 292 C299.65 292.33 301.3 292.66 303 293 C303.33 294.65 303.66 296.3 304 298 C305.32 298.33 306.64 298.66 308 299 C307.93489583 301.01822917 307.86979167 303.03645833 307.8046875 305.0546875 C307.81668311 307.23863645 307.81668311 307.23863645 310 309 C309.690625 309.886875 309.38125 310.77375 309.0625 311.6875 C307.95212048 314.83732888 307.95212048 314.83732888 307.625 317.5625 C306.78131157 320.85288486 305.39105999 322.60894001 303 325 C302.13375 325.165 301.2675 325.33 300.375 325.5 C299.59125 325.665 298.8075 325.83 298 326 C297.71125 326.763125 297.4225 327.52625 297.125 328.3125 C295.49523002 332.20583939 292.77777782 333.37863613 289 335 C286.0625 335.75 286.0625 335.75 284 336 C284 336.66 284 337.32 284 338 C282.35 337.67 280.7 337.34 279 337 C278.34 337.99 277.68 338.98 277 340 C274.28107212 340.50350516 271.74667976 340.79638178 269 341 C268.03835938 341.09152344 267.07671875 341.18304688 266.0859375 341.27734375 C250.44524573 342.72262286 250.44524573 342.72262286 247 341 C247 341.66 247 342.32 247 343 C246.34 343 245.68 343 245 343 C245 342.34 245 341.68 245 341 C241.7 341 238.4 341 235 341 C235.33 343.64 235.66 346.28 236 349 C235.34 349 234.68 349 234 349 C234.33 352.63 234.66 356.26 235 360 C234.34 360 233.68 360 233 360 C233.33 360.5775 233.66 361.155 234 361.75 C235 364 235 364 235 368 C234.34 368.66 233.68 369.32 233 370 C233.29369827 371.34262065 233.6278958 372.67696283 234 374 C233.67 374.66 233.34 375.32 233 376 C232.34 376 231.68 376 231 376 C231.33 378.64 231.66 381.28 232 384 C231.34 384 230.68 384 230 384 C230 386.64 230 389.28 230 392 C229.01 392.33 228.02 392.66 227 393 C227.33 395.64 227.66 398.28 228 401 C227.34 401 226.68 401 226 401 C225.89042969 401.61488281 225.78085937 402.22976563 225.66796875 402.86328125 C225.50941406 403.67152344 225.35085938 404.47976563 225.1875 405.3125 C225.03667969 406.11300781 224.88585937 406.91351563 224.73046875 407.73828125 C223.91185574 410.27291727 222.86578194 411.16923273 221 413 C220.835 414.175625 220.67 415.35125 220.5 416.5625 C220.335 417.696875 220.17 418.83125 220 420 C219.01 420.66 218.02 421.32 217 422 C215.74198982 424.66402156 214.91964618 427.28697794 214.125 430.125 C212.85287748 433.37597976 211.75423816 434.02039132 209 436 C208.67 436.86625 208.34 437.7325 208 438.625 C207.67 439.40875 207.34 440.1925 207 441 C204.875 441.8125 204.875 441.8125 203 442 C202.731875 443.11375 202.46375 444.2275 202.1875 445.375 C201 449 201 449 198 451 C196.78715124 454.05429073 196.78715124 454.05429073 196 457 C194.68 457 193.36 457 192 457 C189.83973235 459.9070643 189.83973235 459.9070643 188 463 C187.34 463.33 186.68 463.66 186 464 C186 463.34 186 462.68 186 462 C183.94729537 463.84188612 183.94729537 463.84188612 183 466 C182.34 466 181.68 466 181 466 C180.690625 466.78375 180.38125 467.5675 180.0625 468.375 C179 471 179 471 178 473 C176.3364521 473.67441131 174.66933058 474.3400321 173 475 C171.66209359 475.99387334 170.32781878 476.9926892 169 478 C168.34 478 167.68 478 167 478 C166.67 479.32 166.34 480.64 166 482 C166.99 482 167.98 482 169 482 C169.103125 482.61875 169.20625 483.2375 169.3125 483.875 C169.87525373 486.36526484 169.87525373 486.36526484 173 488 C173.34153937 489.66500443 173.67449498 491.33178677 174 493 C175.58605179 494.93084565 176.76580344 495.88290172 179 497 C178.67 497.33 178.34 497.66 178 498 C178.66 498.66 179.32 499.32 180 500 C179.67 500.99 179.34 501.98 179 503 C180.32 502.67 181.64 502.34 183 502 C183 501.34 183 500.68 183 500 C185.97 499.67 188.94 499.34 192 499 C192.33 499.99 192.66 500.98 193 502 C194.65 501.34 196.3 500.68 198 500 C198 500.66 198 501.32 198 502 C199.32 501.34 200.64 500.68 202 500 C204.14201526 503.21302289 204.65325876 504.26709281 204 508 C201.6875 509.875 201.6875 509.875 199 511 C198.01 510.67 197.02 510.34 196 510 C196 510.66 196 511.32 196 512 C196.99 512 197.98 512 199 512 C199.35475877 515.81365679 199.2619932 517.58442458 197.1875 520.875 C195 523 195 523 192 523 C191.34 523.99 190.68 524.98 190 526 C189.608125 525.484375 189.21625 524.96875 188.8125 524.4375 C188.214375 523.963125 187.61625 523.48875 187 523 C184.34533951 523.23043864 184.34533951 523.23043864 182 524 C181.67 523.34 181.34 522.68 181 522 C179.35 522 177.7 522 176 522 C176 522.99 176 523.98 176 525 C174.02 525.66 172.04 526.32 170 527 C170 526.34 170 525.68 170 525 C167.69 525.33 165.38 525.66 163 526 C162.67 525.34 162.34 524.68 162 524 C160.35 524 158.7 524 157 524 C156.01 525.98 155.02 527.96 154 530 C153.01 530 152.02 530 151 530 C150.67 529.34 150.34 528.68 150 528 C147.97954558 528.60183749 145.97888961 529.27306096 144 530 C143.67 530.66 143.34 531.32 143 532 C142.01 532 141.02 532 140 532 C140 531.01 140 530.02 140 529 C138.68 529.33 137.36 529.66 136 530 C136 530.66 136 531.32 136 532 C129.00332583 533.90818386 123.60489576 531.52699624 117 529 C117 529.99 117 530.98 117 532 C115.02 531.67 113.04 531.34 111 531 C111 531.99 111 532.98 111 534 C110.34 534 109.68 534 109 534 C109 533.34 109 532.68 109 532 C106.36 532 103.72 532 101 532 C101 531.34 101 530.68 101 530 C100.45730469 530.20496094 99.91460937 530.40992188 99.35546875 530.62109375 C98.64003906 530.89050781 97.92460937 531.15992188 97.1875 531.4375 C96.12595703 531.83775391 96.12595703 531.83775391 95.04296875 532.24609375 C93.37327604 532.86225186 91.68842296 533.43719235 90 534 C90 532.68 90 531.36 90 530 C87.97954558 530.60183749 85.97888961 531.27306096 84 532 C83.67 532.66 83.34 533.32 83 534 C80.80540745 533.01621713 79.20335306 532.22103594 77.5625 530.4375 C75.50800956 528.54736879 73.72005723 528.3675753 71 528 C70.67 529.65 70.34 531.3 70 533 C69.2575 532.79375 68.515 532.5875 67.75 532.375 C64.6098126 531.94679263 63.6530451 532.40817294 61 534 C56.82518761 535.39160413 54.09766916 534.36588972 50 533 C49.67 533.99 49.34 534.98 49 536 C46.83125748 535.49396008 45.00032373 535.00016187 43 534 C43 533.01 43 532.02 43 531 C39.72533593 531.38077489 37.44768068 531.69751305 34.6875 533.5625 C30.82804495 535.62685968 27.2897257 535.25233681 23 535 C22.67 534.01 22.34 533.02 22 532 C21.34 532.33 20.68 532.66 20 533 C15.58690798 533.33586364 11.39983284 533.61853079 7.3125 531.8125 C4.77232462 530.64092272 4.77232462 530.64092272 1.375 532.375 C0.26125 532.91125 -0.8525 533.4475 -2 534 C-2.99 534 -3.98 534 -5 534 C-5.33 533.34 -5.66 532.68 -6 532 C-9.74198039 531.29396596 -13.18792739 531 -17 531 C-17.66 530.34 -18.32 529.68 -19 529 C-21.08333333 529.16666667 -21.08333333 529.16666667 -23 530 C-23.33 530.66 -23.66 531.32 -24 532 C-28.0150735 533.00376838 -30.16667491 533.40779739 -33.9375 531.5625 C-34.618125 531.046875 -35.29875 530.53125 -36 530 C-36.33 530.66 -36.66 531.32 -37 532 C-37.99 531.67 -38.98 531.34 -40 531 C-40.33 529.35 -40.66 527.7 -41 526 C-41.5775 526.680625 -42.155 527.36125 -42.75 528.0625 C-43.86375 529.0215625 -43.86375 529.0215625 -45 530 C-47.0625 529.8125 -47.0625 529.8125 -49 529 C-49.99 528.67 -50.98 528.34 -52 528 C-52.33 528.66 -52.66 529.32 -53 530 C-56.82365974 530 -57.87154838 529.77278925 -61 528 C-61.66 527.67 -62.32 527.34 -63 527 C-63.33 527.66 -63.66 528.32 -64 529 C-66.5625 529.625 -66.5625 529.625 -69 530 C-68.67 528.68 -68.34 527.36 -68 526 C-68.66 525.67 -69.32 525.34 -70 525 C-70 525.66 -70 526.32 -70 527 C-71.5159375 527.185625 -71.5159375 527.185625 -73.0625 527.375 C-76.95741309 527.8977863 -76.95741309 527.8977863 -80.4375 529.0625 C-83.40022345 529.84216407 -85.22364408 530.08232933 -88.1875 530 C-91.85396845 530 -92.94589404 530.3638718 -96 532 C-97.33841672 531.68770276 -98.67139075 531.35169068 -100 531 C-100.969375 531.185625 -101.93875 531.37125 -102.9375 531.5625 C-106.43300366 532.06185767 -107.82759067 531.38284509 -111 530 C-111.845625 530.0825 -112.69125 530.165 -113.5625 530.25 C-114.366875 530.1675 -115.17125 530.085 -116 530 C-117.3726682 528.02678947 -118.70427617 526.02456848 -120 524 C-121.66392045 523.32650839 -123.33032028 522.6590841 -125 522 C-126.3125 519.375 -126.3125 519.375 -127 517 C-127.70125 517.495 -128.4025 517.99 -129.125 518.5 C-132.4144958 520.21625868 -134.34860586 520.07768924 -138 520 C-140.15028304 520.94978897 -140.15028304 520.94978897 -142 522 C-142.99 522 -143.98 522 -145 522 C-146.36176581 520.01924973 -147.69593116 518.01920337 -149 516 C-149.66 516 -150.32 516 -151 516 C-151 516.66 -151 517.32 -151 518 C-151.66 518 -152.32 518 -153 518 C-152.01 515.525 -152.01 515.525 -151 513 C-151.66 512.67 -152.32 512.34 -153 512 C-153 512.66 -153 513.32 -153 514 C-155.31 513.67 -157.62 513.34 -160 513 C-159.67 511.68 -159.34 510.36 -159 509 C-157.35 509 -155.7 509 -154 509 C-154.20625 508.360625 -154.4125 507.72125 -154.625 507.0625 C-155.46164657 500.22988636 -153.0038447 492.5854346 -149 487 C-148.01 486.67 -147.02 486.34 -146 486 C-144.77554716 484.37051936 -144.77554716 484.37051936 -143.8125 482.4375 C-143.214375 481.303125 -142.61625 480.16875 -142 479 C-142.56589844 478.61328125 -143.13179687 478.2265625 -143.71484375 477.828125 C-144.44832031 477.30734375 -145.18179688 476.7865625 -145.9375 476.25 C-146.66839844 475.73953125 -147.39929688 475.2290625 -148.15234375 474.703125 C-150.20805399 472.80822085 -150.62669176 471.72574271 -151 469 C-151.66 469 -152.32 469 -153 469 C-153 469.66 -153 470.32 -153 471 C-156.41158256 469.86280581 -157.11854601 468.95657056 -159 466 C-159 465.34 -159 464.68 -159 464 C-160.65 464.33 -162.3 464.66 -164 465 C-165.35439668 462.29120665 -165.06501451 459.99066732 -165 457 C-166.423125 457.0309375 -166.423125 457.0309375 -167.875 457.0625 C-171 457 -171 457 -173 456 C-173 455.01 -173 454.02 -173 453 C-173.680625 452.360625 -174.36125 451.72125 -175.0625 451.0625 C-175.701875 450.381875 -176.34125 449.70125 -177 449 C-176.75 446.75 -176.75 446.75 -176 445 C-176.66 445 -177.32 445 -178 445 C-178.33 445.99 -178.66 446.98 -179 448 C-180.32 446.02 -181.64 444.04 -183 442 C-182.67 441.67 -182.34 441.34 -182 441 C-182.66 440.67 -183.32 440.34 -184 440 C-184 439.34 -184 438.68 -184 438 C-184.9590625 437.62875 -184.9590625 437.62875 -185.9375 437.25 C-188 436 -188 436 -188.625 434.0625 C-188.74875 433.381875 -188.8725 432.70125 -189 432 C-189.99 430.515 -189.99 430.515 -191 429 C-191.66 429 -192.32 429 -193 429 C-193 427.35 -193 425.7 -193 424 C-194.32 423.34 -195.64 422.68 -197 422 C-196.34 420.68 -195.68 419.36 -195 418 C-195.61875 417.7525 -196.2375 417.505 -196.875 417.25 C-199.39525827 415.76749514 -200.01231659 414.71612936 -201 412 C-201 411.01 -201 410.02 -201 409 C-201.66 408.67 -202.32 408.34 -203 408 C-203 406.02 -203 404.04 -203 402 C-203.99 401.67 -204.98 401.34 -206 401 C-206.0825 400.01 -206.165 399.02 -206.25 398 C-206.66291301 394.93704824 -207.55544606 392.75176586 -209.0625 390.0625 C-211.34207363 385.8254664 -211.4110466 382.7681405 -211 378 C-210.67 377.34 -210.34 376.68 -210 376 C-210.66 376 -211.32 376 -212 376 C-212.144375 375.38125 -212.28875 374.7625 -212.4375 374.125 C-212.93152225 371.96741678 -212.93152225 371.96741678 -214 370 C-214.14375422 366.62177584 -214.07536348 364.22609045 -213 361 C-213.495 359.5459375 -213.495 359.5459375 -214 358.0625 C-215.07477284 354.77100817 -214.86001013 354.15337048 -214 351 C-214.165 349.845 -214.33 348.69 -214.5 347.5 C-214.93772143 344.43594998 -215.02210188 342.83917188 -214 340 C-215.11375 340.185625 -216.2275 340.37125 -217.375 340.5625 C-221 341 -221 341 -223 340 C-225.32914823 339.63858045 -227.66253478 339.30300475 -230 339 C-230.33 339.99 -230.66 340.98 -231 342 C-231.95261719 341.9278125 -232.90523437 341.855625 -233.88671875 341.78125 C-235.14097656 341.6884375 -236.39523438 341.595625 -237.6875 341.5 C-238.92886719 341.4071875 -240.17023438 341.314375 -241.44921875 341.21875 C-243.56993406 341.08810087 -245.69562755 341.00481737 -247.8203125 341.01953125 C-250.61694232 340.99447184 -252.41425041 340.09176094 -255 339 C-257.62504024 338.27104967 -260.25317913 337.561677 -262.890625 336.87890625 C-263.93476563 336.44384766 -263.93476563 336.44384766 -265 336 C-265.33 335.01 -265.66 334.02 -266 333 C-266.9075 333.103125 -267.815 333.20625 -268.75 333.3125 C-272 333 -272 333 -274 330.6875 C-274.66 329.800625 -275.32 328.91375 -276 328 C-277.546875 327.2575 -277.546875 327.2575 -279.125 326.5 C-282.61272086 324.68031955 -282.76883299 323.60556052 -284 320 C-284.67289062 319.41605469 -285.34578125 318.83210938 -286.0390625 318.23046875 C-288.63145459 315.28175185 -288.41787661 313.61116195 -288.25 309.75 C-288.21390625 308.67234375 -288.1778125 307.5946875 -288.140625 306.484375 C-288.09421875 305.66453125 -288.0478125 304.8446875 -288 304 C-287.34 304 -286.68 304 -286 304 C-286.33 302.68 -286.66 301.36 -287 300 C-286.34 300 -285.68 300 -285 300 C-284.67 298.35 -284.34 296.7 -284 295 C-283.38125 294.9175 -282.7625 294.835 -282.125 294.75 C-279.82530563 294.21868674 -279.82530563 294.21868674 -279.0625 292.0625 C-278 290 -278 290 -275.625 289.125 C-272.71114992 288.16538205 -272.71114992 288.16538205 -271.0625 285 C-268.57626405 281.38365681 -267.06691468 281.27091084 -263 280 C-260.79857668 277.5609294 -260.79857668 277.5609294 -259 275 C-256 273 -256 273 -253 273 C-252.938125 272.401875 -252.87625 271.80375 -252.8125 271.1875 C-251.66445318 268.09660471 -249.89452948 267.4119656 -247 266 C-246.34 266 -245.68 266 -245 266 C-245 264.68 -245 263.36 -245 262 C-243.02 261.34 -241.04 260.68 -239 260 C-239 259.34 -239 258.68 -239 258 C-238.38125 257.773125 -237.7625 257.54625 -237.125 257.3125 C-234.77279369 256.15068028 -234.77279369 256.15068028 -234 253.5 C-232.77750928 250.44377319 -231.86808452 250.34441462 -229 249 C-228.67 248.34 -228.34 247.68 -228 247 C-227 245 -227 245 -225 244.0625 C-222.74387165 243.13991505 -222.74387165 243.13991505 -222 240.5 C-221 238 -221 238 -218.9375 236.8125 C-217.9784375 236.4103125 -217.9784375 236.4103125 -217 236 C-216.67 235.34 -216.34 234.68 -216 234 C-215.01 234 -214.02 234 -213 234 C-213.268125 233.443125 -213.53625 232.88625 -213.8125 232.3125 C-213.874375 231.549375 -213.93625 230.78625 -214 230 C-212.37660195 228.29115995 -210.70680947 226.62553283 -209 225 C-208.03955898 222.92309422 -208.03955898 222.92309422 -208 221 C-208.33 220.34 -208.66 219.68 -209 219 C-208.00522247 216.66443537 -207.00484883 214.33124929 -206 212 C-206 210.68 -206 209.36 -206 208 C-205.38655243 206.31301918 -204.72904086 204.64034193 -204 203 C-203.34 203 -202.68 203 -202 203 C-203.485 202.01 -203.485 202.01 -205 201 C-204.67 199.68 -204.34 198.36 -204 197 C-203.34 197 -202.68 197 -202 197 C-201.87625 195.7625 -201.7525 194.525 -201.625 193.25 C-201.24202922 190.05106756 -200.4379537 187.8759074 -199 185 C-199.185625 184.319375 -199.37125 183.63875 -199.5625 182.9375 C-199.7790625 181.9784375 -199.7790625 181.9784375 -200 181 C-199.54625 180.566875 -199.0925 180.13375 -198.625 179.6875 C-196.1902245 177.15907929 -196.43997887 174.3941227 -196 171 C-195.34 170.67 -194.68 170.34 -194 170 C-194 167.36 -194 164.72 -194 162 C-193.01 161.67 -192.02 161.34 -191 161 C-191.309375 159.8553125 -191.309375 159.8553125 -191.625 158.6875 C-192 156 -192 156 -190 153 C-189.34 153 -188.68 153 -188 153 C-188.020625 151.9275 -188.04125 150.855 -188.0625 149.75 C-188.0142016 146.85209576 -187.86844115 144.71387859 -187 142 C-186.01 142 -185.02 142 -184 142 C-184.185625 141.21625 -184.37125 140.4325 -184.5625 139.625 C-185 137 -185 137 -184 135 C-183.34 135 -182.68 135 -182 135 C-181.505 131.04 -181.505 131.04 -181 127 C-179.68 126.67 -178.36 126.34 -177 126 C-176.896875 124.906875 -176.79375 123.81375 -176.6875 122.6875 C-175.96176305 118.7949109 -175.62633677 118.51690607 -173 116 C-172.64080679 114.00448218 -172.30503431 112.00451121 -172 110 C-171.34 109.67 -170.68 109.34 -170 109 C-169.731875 108.175 -169.46375 107.35 -169.1875 106.5 C-168.795625 105.675 -168.40375 104.85 -168 104 C-165.375 103.1875 -165.375 103.1875 -163 103 C-163.061875 102.21625 -163.12375 101.4325 -163.1875 100.625 C-163.125625 99.75875 -163.06375 98.8925 -163 98 C-162.01 97.34 -161.02 96.68 -160 96 C-159.30643577 93.67451993 -158.63850788 91.34119555 -158 89 C-157.34 88.67 -156.68 88.34 -156 88 C-155.5978125 86.7934375 -155.5978125 86.7934375 -155.1875 85.5625 C-153.65796309 82.26192034 -152.27871252 82.26104328 -149 81 C-148.39938767 79.09821215 -148.39938767 79.09821215 -148 77 C-146.68733482 75.64631404 -145.35432675 74.31200404 -144 73 C-143.67 72.01 -143.34 71.02 -143 70 C-142.195625 69.71125 -141.39125 69.4225 -140.5625 69.125 C-137.76231971 68.2526703 -137.76231971 68.2526703 -137 65.5 C-136.67 64.675 -136.34 63.85 -136 63 C-134.33333333 62.33333333 -132.66666667 61.66666667 -131 61 C-130.690625 60.195625 -130.38125 59.39125 -130.0625 58.5625 C-129 56 -129 56 -126 54.125 C-124.515 53.568125 -124.515 53.568125 -123 53 C-122.34 53.33 -121.68 53.66 -121 54 C-121.33 53.01 -121.66 52.02 -122 51 C-121.5625 48.9375 -121.5625 48.9375 -120 47 C-117.34361766 46.03158363 -114.79335409 45.54064918 -112 45 C-112.33 44.01 -112.66 43.02 -113 42 C-108.43076923 39.08076923 -108.43076923 39.08076923 -106 38.625 C-102.9030737 37.65721053 -101.2302916 35.28747856 -99 33 C-98.01 32.67 -97.02 32.34 -96 32 C-95.01 30.515 -95.01 30.515 -94 29 C-92.1875 28.4375 -92.1875 28.4375 -90 28 C-88.3255761 27.3530635 -86.65697379 26.69040574 -85 26 C-85 26.99 -85 27.98 -85 29 C-84.34 29 -83.68 29 -83 29 C-83.33 27.68 -83.66 26.36 -84 25 C-79.10160999 21.10640794 -75.2049038 20.2757735 -69 20 C-69.33 19.01 -69.66 18.02 -70 17 C-61.14223195 12.76367615 -61.14223195 12.76367615 -56.375 13.75 C-55.199375 14.36875 -55.199375 14.36875 -54 15 C-54.33 14.01 -54.66 13.02 -55 12 C-49.25 10 -49.25 10 -47 10 C-47 9.34 -47 8.68 -47 8 C-46.236875 8.226875 -45.47375 8.45375 -44.6875 8.6875 C-43.800625 8.790625 -42.91375 8.89375 -42 9 C-40.97803008 8.02246356 -39.98020375 7.0194119 -39 6 C-35.8125 5.3125 -35.8125 5.3125 -33 5 C-33 5.66 -33 6.32 -33 7 C-32.34 7 -31.68 7 -31 7 C-30.67 6.01 -30.34 5.02 -30 4 C-26.33333333 4 -22.66666667 4 -19 4 C-18.67 3.34 -18.34 2.68 -18 2 C-17.34 2.33 -16.68 2.66 -16 3 C-16 2.34 -16 1.68 -16 1 C-15.071875 1.37125 -14.14375 1.7425 -13.1875 2.125 C-11.6096875 2.558125 -11.6096875 2.558125 -10 3 C-8.515 2.01 -8.515 2.01 -7 1 C-3.3125 1.375 -3.3125 1.375 0 2 C0 1.34 0 0.68 0 0 Z M6 10 C5.34 10.99 4.68 11.98 4 13 C2.39125 12.7215625 2.39125 12.7215625 0.75 12.4375 C-2.6364119 12.04241861 -3.90623227 12.0942201 -7 13 C-8.53875415 13.40700835 -10.08054786 13.80267831 -11.625 14.1875 C-12.78902344 14.48720703 -12.78902344 14.48720703 -13.9765625 14.79296875 C-14.97816406 14.89544922 -14.97816406 14.89544922 -16 15 C-16.66 14.34 -17.32 13.68 -18 13 C-18.99 13 -19.98 13 -21 13 C-21.33 13.99 -21.66 14.98 -22 16 C-25.13349732 17.04449911 -25.98968256 16.93423645 -29 16 C-29 16.66 -29 17.32 -29 18 C-33.455 17.01 -33.455 17.01 -38 16 C-38.66 16.99 -39.32 17.98 -40 19 C-44 19 -44 19 -46 18 C-46.33 19.32 -46.66 20.64 -47 22 C-47.78375 22.144375 -48.5675 22.28875 -49.375 22.4375 C-51.96421018 22.87798925 -51.96421018 22.87798925 -54 24 C-54 23.34 -54 22.68 -54 22 C-54.66 22 -55.32 22 -56 22 C-56 22.66 -56 23.32 -56 24 C-56.66 24 -57.32 24 -58 24 C-58 24.99 -58 25.98 -58 27 C-58.68707031 27.03738281 -59.37414062 27.07476562 -60.08203125 27.11328125 C-60.98308594 27.17902344 -61.88414062 27.24476562 -62.8125 27.3125 C-63.70582031 27.37050781 -64.59914062 27.42851563 -65.51953125 27.48828125 C-68.3588724 28.07403509 -69.0935529 28.91620898 -71 31 C-73.6875 31.1875 -73.6875 31.1875 -76 31 C-76 32.32 -76 33.64 -76 35 C-77.1446875 34.9071875 -77.1446875 34.9071875 -78.3125 34.8125 C-81.50339968 35.03512091 -81.96106145 35.68302438 -84 38 C-84.99 38.33 -85.98 38.66 -87 39 C-88.11375 40.2375 -88.11375 40.2375 -89.25 41.5 C-92.54478656 44.49526051 -94.6316321 44.74303718 -99 45 C-100.35355339 47.88214887 -100.35355339 47.88214887 -99 50 C-103.455 50.495 -103.455 50.495 -108 51 C-108 52.32 -108 53.64 -108 55 C-108.66 55 -109.32 55 -110 55 C-110 55.66 -110 56.32 -110 57 C-110.66 57 -111.32 57 -112 57 C-112 57.66 -112 58.32 -112 59 C-112.99 59.33 -113.98 59.66 -115 60 C-115.12503906 60.64839844 -115.25007812 61.29679687 -115.37890625 61.96484375 C-115.68634766 62.97224609 -115.68634766 62.97224609 -116 64 C-118.21484375 64.94140625 -118.21484375 64.94140625 -120.9375 65.5625 C-125.27363683 66.47307833 -125.27363683 66.47307833 -128 70 C-128 70.99 -128 71.98 -128 73 C-130 74.6875 -130 74.6875 -132 76 C-132.66 75.34 -133.32 74.68 -134 74 C-134 75.65 -134 77.3 -134 79 C-134.99 79 -135.98 79 -137 79 C-137.309375 79.94875 -137.61875 80.8975 -137.9375 81.875 C-139 85 -139 85 -140 87 C-139.67 87.99 -139.34 88.98 -139 90 C-140.32 89.67 -141.64 89.34 -143 89 C-143.5775 90.134375 -144.155 91.26875 -144.75 92.4375 C-146.68760984 95.86983743 -146.68760984 95.86983743 -149.25 96.9375 C-149.8275 96.958125 -150.405 96.97875 -151 97 C-151.0825 98.11375 -151.165 99.2275 -151.25 100.375 C-152 104 -152 104 -154.0625 105.4375 C-154.701875 105.623125 -155.34125 105.80875 -156 106 C-156 107.65 -156 109.3 -156 111 C-157.32 111 -158.64 111 -160 111 C-160 112.98 -160 114.96 -160 117 C-161.65 117.66 -163.3 118.32 -165 119 C-165.103125 120.27875 -165.20625 121.5575 -165.3125 122.875 C-165.48828125 125.0546875 -165.48828125 125.0546875 -166 127 C-166.99 127.66 -167.98 128.32 -169 129 C-169.25030977 131.58380177 -169.25030977 131.58380177 -169 134 C-170.65 134 -172.3 134 -174 134 C-173.62875 134.9075 -173.2575 135.815 -172.875 136.75 C-172 140 -172 140 -172.75 142.3125 C-174 144 -174 144 -176 145 C-175.505 147.475 -175.505 147.475 -175 150 C-176.65 150 -178.3 150 -180 150 C-179.34 152.64 -178.68 155.28 -178 158 C-178.99 158.33 -179.98 158.66 -181 159 C-182.0812391 165.06050614 -182.0812391 165.06050614 -181 171 C-182.65 171.33 -184.3 171.66 -186 172 C-185.67 174.64 -185.34 177.28 -185 180 C-185.99 180.33 -186.98 180.66 -188 181 C-188.93380961 185.53140653 -188.93380961 185.53140653 -188 190 C-188.99 189.67 -189.98 189.34 -191 189 C-191.33 189.66 -191.66 190.32 -192 191 C-191.34 191 -190.68 191 -190 191 C-190.33 191.969375 -190.66 192.93875 -191 193.9375 C-192.52880092 199.26119683 -192.75587407 204.73237778 -191 210 C-191.99 210.33 -192.98 210.66 -194 211 C-194 211.99 -194 212.98 -194 214 C-195.32 213.67 -196.64 213.34 -198 213 C-198 213.99 -198 214.98 -198 216 C-197.01 216 -196.02 216 -195 216 C-195.34586466 226.03007519 -195.34586466 226.03007519 -197.8125 229.6875 C-200 231 -200 231 -204 231 C-204.495 233.97 -204.495 233.97 -205 237 C-206.65 237.33 -208.3 237.66 -210 238 C-210 239.98 -210 241.96 -210 244 C-211.65 244 -213.3 244 -215 244 C-215.495 246.97 -215.495 246.97 -216 250 C-217.32 250.33 -218.64 250.66 -220 251 C-220 252.65 -220 254.3 -220 256 C-220.78375 255.95875 -221.5675 255.9175 -222.375 255.875 C-225.16116119 255.71271266 -225.16116119 255.71271266 -227 258 C-227 258.825 -227 259.65 -227 260.5 C-227 263 -227 263 -229 265 C-230.2375 265.1546875 -230.2375 265.1546875 -231.5 265.3125 C-232.7375 265.6528125 -232.7375 265.6528125 -234 266 C-234.68132451 267.66072849 -235.34742127 269.327767 -236 271 C-237.64551962 271.71727778 -239.31422289 272.38325228 -241 273 C-243.45348157 275.61659096 -243.45348157 275.61659096 -244 279 C-244.66 279 -245.32 279 -246 279 C-246 279.99 -246 280.98 -246 282 C-246.93972656 282.11214844 -246.93972656 282.11214844 -247.8984375 282.2265625 C-250.40598191 282.62998447 -252.63497183 283.06609491 -255 284 C-256.69165301 286.98283157 -256.69165301 286.98283157 -257 290 C-258.32 289.67 -259.64 289.34 -261 289 C-262.57273568 291.8424854 -262.57273568 291.8424854 -263 295 C-263.66 295.33 -264.32 295.66 -265 296 C-265.33 295.34 -265.66 294.68 -266 294 C-266.33 294.99 -266.66 295.98 -267 297 C-267.99 296.67 -268.98 296.34 -270 296 C-270.66 296.33 -271.32 296.66 -272 297 C-272 298.65 -272 300.3 -272 302 C-273.98 302.66 -275.96 303.32 -278 304 C-277.34 304.33 -276.68 304.66 -276 305 C-276.33 306.65 -276.66 308.3 -277 310 C-275.30504044 311.66846734 -275.30504044 311.66846734 -273 313 C-270.51948778 312.73740217 -270.51948778 312.73740217 -268 312 C-267.2575 312.061875 -266.515 312.12375 -265.75 312.1875 C-262.04305733 311.93475391 -259.28594441 310.42340418 -255.98828125 308.77734375 C-255.33214844 308.52082031 -254.67601562 308.26429688 -254 308 C-253.34 308.33 -252.68 308.66 -252 309 C-251.01 307.02 -250.02 305.04 -249 303 C-247.35 303.33 -245.7 303.66 -244 304 C-243.91621094 303.23171875 -243.83242187 302.4634375 -243.74609375 301.671875 C-242.82526771 298.37425716 -241.98268816 297.91281364 -239.0625 296.25 C-233.42087269 292.77265668 -226.03061683 288.06123365 -223 282 C-221.68 282 -220.36 282 -219 282 C-219.33 280.68 -219.66 279.36 -220 278 C-219.195625 277.773125 -218.39125 277.54625 -217.5625 277.3125 C-216.716875 276.879375 -215.87125 276.44625 -215 276 C-214.10613836 273.45224694 -214.10613836 273.45224694 -214 271 C-212.35 271 -210.7 271 -209 271 C-208.87625 270.360625 -208.7525 269.72125 -208.625 269.0625 C-208.41875 268.381875 -208.2125 267.70125 -208 267 C-207.34 266.67 -206.68 266.34 -206 266 C-205.62875 264.824375 -205.62875 264.824375 -205.25 263.625 C-203.57311375 260.10353888 -201.41720085 259.70860042 -198 258 C-196.71745356 255.46229997 -196.71745356 255.46229997 -196 253 C-194 252 -194 252 -191 253 C-190.34 252.34 -189.68 251.68 -189 251 C-189.33 250.34 -189.66 249.68 -190 249 C-189.34 249 -188.68 249 -188 249 C-188 248.01 -188 247.02 -188 246 C-187.01 245.34 -186.02 244.68 -185 244 C-185.56739868 239.87026372 -185.56739868 239.87026372 -187 236 C-186.34 236 -185.68 236 -185 236 C-185.04125 234.906875 -185.0825 233.81375 -185.125 232.6875 C-185 229 -185 229 -183 226 C-182.83326446 224.00796011 -182.83326446 224.00796011 -183 221.9375 C-183 218 -183 218 -181 216 C-181 215.01 -181 214.02 -181 213 C-180.34 213 -179.68 213 -179 213 C-178.79029441 208.85906302 -178.79029441 208.85906302 -180 205 C-179.34 204.67 -178.68 204.34 -178 204 C-177.34227572 200.97065509 -177.34227572 200.97065509 -177 198 C-176.34 198 -175.68 198 -175 198 C-175 197.01 -175 196.02 -175 195 C-174.38125 194.835 -173.7625 194.67 -173.125 194.5 C-170.17086796 192.41473033 -170.02832618 190.30525382 -169.296875 186.875 C-168.94787159 184.98716081 -168.94787159 184.98716081 -169 183 C-169 182.01 -169 181.02 -169 180 C-169.103125 178.88625 -169.20625 177.7725 -169.3125 176.625 C-168.91544229 172.01913054 -167.21272653 171.13034893 -164 168 C-164.04979584 165.239835 -164.04979584 165.239835 -165 163 C-164.38125 162.938125 -163.7625 162.87625 -163.125 162.8125 C-160.80310082 162.19198972 -160.80310082 162.19198972 -159.875 159.875 C-158.87643155 156.59398938 -157.93492465 153.29973405 -157 150 C-156.02701266 146.9907608 -155.01575596 143.995029 -154 141 C-153.67 140.01 -153.34 139.02 -153 138 C-152.34 137.67 -151.68 137.34 -151 137 C-151 135.68 -151 134.36 -151 133 C-150.34 133 -149.68 133 -149 133 C-148.67 131.35 -148.34 129.7 -148 128 C-147.01 127.67 -146.02 127.34 -145 127 C-144.525625 126.01 -144.05125 125.02 -143.5625 124 C-143.046875 123.01 -142.53125 122.02 -142 121 C-139.9375 120.375 -139.9375 120.375 -138 120 C-136.4080494 117.77126916 -135.98834768 116.43113576 -136.0625 113.6875 C-135.97474412 109.91399724 -134.75092987 107.31426011 -133 104 C-130.8125 102.5625 -130.8125 102.5625 -129 102 C-128.67 102.66 -128.34 103.32 -128 104 C-127.7525 103.38125 -127.505 102.7625 -127.25 102.125 C-125.44139479 99.05037115 -123.18126755 98.3821748 -119.875 97.3125 C-116.95790768 95.27053537 -116.90868665 92.33185104 -116 89 C-115.01 88.67 -114.02 88.34 -113 88 C-111.77479736 84.99152582 -111.77479736 84.99152582 -111 82 C-109.68 82 -108.36 82 -107 82 C-106.401875 80.88625 -105.80375 79.7725 -105.1875 78.625 C-103.16505688 74.85907143 -101.16630768 73.36447115 -97 72.0625 C-94.02705831 71.2621303 -94.02705831 71.2621303 -92.5 69.4375 C-90.27674907 67.30688452 -87.98041933 67.3311577 -85 67 C-84.9175 66.21625 -84.835 65.4325 -84.75 64.625 C-84 62 -84 62 -81.9375 60.6875 C-81.298125 60.460625 -80.65875 60.23375 -80 60 C-80 59.01 -80 58.02 -80 57 C-78.88625 57.061875 -77.7725 57.12375 -76.625 57.1875 C-75.42875 57.125625 -74.2325 57.06375 -73 57 C-72.34 56.01 -71.68 55.02 -71 54 C-69.68 54 -68.36 54 -67 54 C-67 53.34 -67 52.68 -67 52 C-66.236875 51.731875 -65.47375 51.46375 -64.6875 51.1875 C-62.12043161 50.05321397 -60.76505092 49.13664059 -59 47 C-59 46.67 -59 46.34 -59 46 C-58.071875 45.71125 -57.14375 45.4225 -56.1875 45.125 C-52.90208333 44.1125 -52.90208333 44.1125 -50 42 C-50 42.66 -50 43.32 -50 44 C-49.34 44 -48.68 44 -48 44 C-48 43.01 -48 42.02 -48 41 C-47.22914063 40.96261719 -46.45828125 40.92523438 -45.6640625 40.88671875 C-44.15972656 40.78810547 -44.15972656 40.78810547 -42.625 40.6875 C-41.62726563 40.62949219 -40.62953125 40.57148437 -39.6015625 40.51171875 C-38.74304688 40.34285156 -37.88453125 40.17398438 -37 40 C-36.01 38.515 -36.01 38.515 -35 37 C-32.6171875 36.48828125 -32.6171875 36.48828125 -29.875 36.3125 C-28.96492187 36.24675781 -28.05484375 36.18101563 -27.1171875 36.11328125 C-26.41851562 36.07589844 -25.71984375 36.03851563 -25 36 C-24.67 36.66 -24.34 37.32 -24 38 C-24 37.34 -24 36.68 -24 36 C-22.35 36 -20.7 36 -19 36 C-18.67 34.35 -18.34 32.7 -18 31 C-14.37 31 -10.74 31 -7 31 C-7 30.34 -7 29.68 -7 29 C-2.25 27.875 -2.25 27.875 0 29 C0.99 28.67 1.98 28.34 3 28 C3.33 28.66 3.66 29.32 4 30 C5.98491642 29.73323796 5.98491642 29.73323796 8 29 C8.33 28.01 8.66 27.02 9 26 C10.5778125 26.309375 10.5778125 26.309375 12.1875 26.625 C16.12408772 27.01220535 17.47848759 26.42764017 21 25 C23.3125 25.875 23.3125 25.875 25 27 C26.485 26.01 26.485 26.01 28 25 C28.66 25 29.32 25 30 25 C30.33 25.66 30.66 26.32 31 27 C32.485 26.01 32.485 26.01 34 25 C36.5 25.375 36.5 25.375 39 26 C39.99 26 40.98 26 42 26 C42.33 25.34 42.66 24.68 43 24 C46.96 24.99 46.96 24.99 51 26 C51 25.34 51 24.68 51 24 C51.61488281 24.15597656 52.22976563 24.31195313 52.86328125 24.47265625 C53.67152344 24.66730469 54.47976563 24.86195312 55.3125 25.0625 C56.11300781 25.25972656 56.91351563 25.45695312 57.73828125 25.66015625 C60.15957179 26.19885554 60.15957179 26.19885554 63 25 C63.99 25.33 64.98 25.66 66 26 C66.99 26 67.98 26 69 26 C70.67099977 26.31088368 72.33871537 26.64080332 74 27 C74.33 25.68 74.66 24.36 75 23 C74.13375 22.814375 74.13375 22.814375 73.25 22.625 C70.96831644 21.99119901 69.09868554 21.08319254 67 20 C63.96748102 18.87062591 63.96748102 18.87062591 60.5 18.625 C56.9485752 17.990817 56.18609394 17.64632424 54 15 C53.34 15 52.68 15 52 15 C52 15.99 52 16.98 52 18 C46.25 15.25 46.25 15.25 44 13 C41.69254991 13.29329272 41.69254991 13.29329272 39 14 C36.66822025 14.34403308 34.33512959 14.67949202 32 15 C31.34 13.68 30.68 12.36 30 11 C28.02 11.66 26.04 12.32 24 13 C23.67 12.67 23.34 12.34 23 12 C21.33382885 11.95936168 19.66611905 11.957279 18 12 C17.67 11.34 17.34 10.68 17 10 C17 10.66 17 11.32 17 12 C16.278125 11.814375 15.55625 11.62875 14.8125 11.4375 C11.87173027 10.98004693 9.85896942 11.26483643 7 12 C6.67 11.34 6.34 10.68 6 10 Z M-27 13 C-26 15 -26 15 -26 15 Z M-72 24 C-71 26 -71 26 -71 26 Z M83 25 C81.22809091 26.35444301 81.22809091 26.35444301 80 28 C82.31 28.66 84.62 29.32 87 30 C87 28.68 87 27.36 87 26 C85.16299211 25.22757731 85.16299211 25.22757731 83 25 Z M120 46 C121 48 121 48 121 48 Z M-117 51 C-116 53 -116 53 -116 53 Z M-114 54 C-113 56 -113 56 -113 56 Z M166 82 C167 84 167 84 167 84 Z M113 96 C113.66 96.66 114.32 97.32 115 98 C115 97.34 115 96.68 115 96 C114.34 96 113.68 96 113 96 Z M90 100 C90.66 100.66 91.32 101.32 92 102 C92 101.34 92 100.68 92 100 C91.34 100 90.68 100 90 100 Z M93 102 C94 104 94 104 94 104 Z M-74 103 C-74 103.99 -74 104.98 -74 106 C-74.64066406 106.06058594 -75.28132813 106.12117188 -75.94140625 106.18359375 C-79.95572513 106.5724622 -83.94395858 106.99199408 -87.9375 107.5625 C-91 108 -91 108 -94 108 C-93.01 109.485 -93.01 109.485 -92 111 C-95.58752742 112.86551426 -99.27812193 114.42535928 -103 116 C-103 116.99 -103 117.98 -103 119 C-104.65 118.67 -106.3 118.34 -108 118 C-108.598125 118.78375 -109.19625 119.5675 -109.8125 120.375 C-112 123 -112 123 -115 125 C-115 125.66 -115 126.32 -115 127 C-117.31 127.33 -119.62 127.66 -122 128 C-121.34 129.65 -120.68 131.3 -120 133 C-121.65 133 -123.3 133 -125 133 C-125.33 134.98 -125.66 136.96 -126 139 C-127.32 139 -128.64 139 -130 139 C-129.95875 139.78375 -129.9175 140.5675 -129.875 141.375 C-130 144 -130 144 -132 146 C-132.45811675 147.97235333 -132.45811675 147.97235333 -132.625 150.125 C-132.810625 152.043125 -132.810625 152.043125 -133 154 C-133.66 154 -134.32 154 -135 154 C-135.50833591 155.24663331 -136.00631145 156.49749387 -136.5 157.75 C-136.91765625 158.79414063 -136.91765625 158.79414063 -137.34375 159.859375 C-138.19540327 162.26422695 -138.19540327 162.26422695 -138 166 C-139.485 166.495 -139.485 166.495 -141 167 C-141.7166207 169.31847874 -142.38242027 171.65319703 -143 174 C-143.99 174.99 -143.99 174.99 -145 176 C-143.515 176.495 -143.515 176.495 -142 177 C-142.99 178.98 -143.98 180.96 -145 183 C-144.34 183 -143.68 183 -143 183 C-143.32871094 183.53367187 -143.65742188 184.06734375 -143.99609375 184.6171875 C-145.25612807 187.60793044 -145.16178991 189.8921206 -145.0625 193.125 C-144.90277778 198.80555556 -144.90277778 198.80555556 -146 201 C-145.34 201 -144.68 201 -144 201 C-144 201.66 -144 202.32 -144 203 C-144.66 203 -145.32 203 -146 203 C-146 203.66 -146 204.32 -146 205 C-145.34 205 -144.68 205 -144 205 C-144.165 205.5775 -144.33 206.155 -144.5 206.75 C-145.44903913 211.02067608 -144.74043987 214.3969367 -143.5625 218.5 C-142.00410336 223.98073793 -142.00410336 223.98073793 -141.52734375 226.21875 C-141.0851094 228.23308308 -141.0851094 228.23308308 -139 230 C-138.60235737 231.98821313 -138.26224651 233.98944339 -138 236 C-137.01 236.33 -136.02 236.66 -135 237 C-134.3125 239.0625 -134.3125 239.0625 -134 241 C-134.66 241.33 -135.32 241.66 -136 242 C-135.34 242 -134.68 242 -134 242 C-133.34 243.65 -132.68 245.3 -132 247 C-131.01 246.67 -130.02 246.34 -129 246 C-128.731875 246.7425 -128.46375 247.485 -128.1875 248.25 C-127.15812728 251.01666974 -127.15812728 251.01666974 -125.3125 252.9375 C-124 255 -124 255 -124.3125 258.25 C-124.539375 259.1575 -124.76625 260.065 -125 261 C-125.62648437 261.09796875 -126.25296875 261.1959375 -126.8984375 261.296875 C-128.12433594 261.52117187 -128.12433594 261.52117187 -129.375 261.75 C-130.59316406 261.95882812 -130.59316406 261.95882812 -131.8359375 262.171875 C-134.16631317 262.80327582 -134.16631317 262.80327582 -135.15625 265 C-135.4346875 265.66 -135.713125 266.32 -136 267 C-138.125 268.25 -138.125 268.25 -140 269 C-140 270.65 -140 272.3 -140 274 C-140.99 274.33 -141.98 274.66 -143 275 C-143.80212628 276.87387216 -143.80212628 276.87387216 -144.1875 279.0625 C-144.34605469 279.79597656 -144.50460938 280.52945313 -144.66796875 281.28515625 C-144.77753906 281.85105469 -144.88710937 282.41695312 -145 283 C-145.66 283 -146.32 283 -147 283 C-147.495 285.97 -147.495 285.97 -148 289 C-149.32 289.33 -150.64 289.66 -152 290 C-152.103125 291.11375 -152.20625 292.2275 -152.3125 293.375 C-152.539375 294.57125 -152.76625 295.7675 -153 297 C-154.485 297.99 -154.485 297.99 -156 299 C-156 299.66 -156 300.32 -156 301 C-155.34 301 -154.68 301 -154 301 C-153.67 302.32 -153.34 303.64 -153 305 C-153.99 305 -154.98 305 -156 305 C-156.45375 306.2375 -156.9075 307.475 -157.375 308.75 C-158.223237 311.04427913 -159.06002648 313.10804766 -160.25 315.25 C-161.21999976 317.51333277 -160.81177087 318.72704155 -160 321 C-160.66 321 -161.32 321 -162 321 C-163.0326802 323.78823655 -163.04509293 324.8677274 -162.0625 327.75 C-161.5365625 328.86375 -161.5365625 328.86375 -161 330 C-161.99 330 -162.98 330 -164 330 C-165.04214691 334.61507774 -165.04214691 334.61507774 -164 339 C-164.99 339 -165.98 339 -167 339 C-167.165 340.27875 -167.33 341.5575 -167.5 342.875 C-167.63921875 343.95394531 -167.63921875 343.95394531 -167.78125 345.0546875 C-168.0372485 347.00498344 -168.0372485 347.00498344 -168 349 C-168.226875 350.27875 -168.45375 351.5575 -168.6875 352.875 C-169.10257536 355.96001958 -169.17193775 356.70097782 -167.5625 359.5 C-166.7890625 360.2425 -166.7890625 360.2425 -166 361 C-166.99 361.33 -167.98 361.66 -169 362 C-168.89171875 363.66289063 -168.89171875 363.66289063 -168.78125 365.359375 C-168.6874335 366.82291241 -168.59368718 368.28645431 -168.5 369.75 C-168.45230469 370.47960937 -168.40460938 371.20921875 -168.35546875 371.9609375 C-168.14183103 375.31810164 -168 378.63436276 -168 382 C-167.35355339 385.11785113 -167.35355339 385.11785113 -165 386 C-165 389.66666667 -165 393.33333333 -165 397 C-164.69159401 399.15274948 -164.69159401 399.15274948 -164 401 C-163.34 401.33 -162.68 401.66 -162 402 C-162.495 405.96 -162.495 405.96 -163 410 C-161.35 410.33 -159.7 410.66 -158 411 C-158.04125 411.763125 -158.0825 412.52625 -158.125 413.3125 C-158.22080824 416.22718416 -158.22080824 416.22718416 -156 419 C-155.34 419 -154.68 419 -154 419 C-154.33 420.65 -154.66 422.3 -155 424 C-154.01 424.33 -153.02 424.66 -152 425 C-151.67 425.66 -151.34 426.32 -151 427 C-150.34 427 -149.68 427 -149 427 C-149.226875 427.763125 -149.45375 428.52625 -149.6875 429.3125 C-149.790625 430.199375 -149.89375 431.08625 -150 432 C-148.60411246 433.64594139 -148.60411246 433.64594139 -147 435 C-147 435.99 -147 436.98 -147 438 C-145.06558385 439.89916483 -142.97557794 441.50602585 -140.84765625 443.18359375 C-138.79775576 445.19882362 -138.6089552 446.2796207 -138 449 C-136.01833966 450.0358679 -134.01526169 451.03112419 -132 452 C-130.33333333 453.66666667 -128.66666667 455.33333333 -127 457 C-124.82653432 457.86119134 -124.82653432 457.86119134 -123 458 C-123 458.99 -123 459.98 -123 461 C-121.18777466 463.0624994 -121.18777466 463.0624994 -119 465 C-118.33097656 465.77730469 -118.33097656 465.77730469 -117.6484375 466.5703125 C-115.58009512 468.36418291 -114.12641481 468.51175286 -111.4375 468.875 C-109.01953125 469.3359375 -109.01953125 469.3359375 -107 470 C-105.625 472.5 -105.625 472.5 -105 475 C-104.01 475.66 -103.02 476.32 -102 477 C-102 476.34 -102 475.68 -102 475 C-101.32453125 475.37253906 -100.6490625 475.74507813 -99.953125 476.12890625 C-98.61507812 476.83853516 -98.61507812 476.83853516 -97.25 477.5625 C-96.36828125 478.03816406 -95.4865625 478.51382812 -94.578125 479.00390625 C-91.79298812 480.07998186 -90.73019786 480.06528748 -88 479 C-88 479.66 -88 480.32 -88 481 C-86.9275 481.66 -85.855 482.32 -84.75 483 C-84.14671875 483.37125 -83.5434375 483.7425 -82.921875 484.125 C-80.74520615 485.27624023 -80.74520615 485.27624023 -77 485 C-76.01 486.485 -76.01 486.485 -75 488 C-72.58354218 488.16687448 -72.58354218 488.16687448 -70 488 C-68.65737935 488.29369827 -67.32303717 488.6278958 -66 489 C-64.33480481 489.34060811 -62.66842534 489.67558396 -61 490 C-61 490.66 -61 491.32 -61 492 C-60.43152344 491.98839844 -59.86304688 491.97679687 -59.27734375 491.96484375 C-46.46919431 491.81516588 -46.46919431 491.81516588 -43.0625 494.5625 C-42.711875 495.036875 -42.36125 495.51125 -42 496 C-41.67 495.01 -41.34 494.02 -41 493 C-39.6696875 493.7425 -39.6696875 493.7425 -38.3125 494.5 C-33.93802221 496.4808956 -31.50298268 496.50099423 -27 495 C-24.90625 495.375 -24.90625 495.375 -22.5 496 C-18.48696254 496.90352013 -15.31898408 496.94198958 -11.25 496.375 C-7.58409283 495.91417269 -5.55443483 495.7676416 -2.5 497.9375 C-1.675 498.618125 -0.85 499.29875 0 500 C0.99 500 1.98 500 3 500 C6 500 6 500 7.6875 501.5 C8.120625 501.995 8.55375 502.49 9 503 C9.66 501.68 10.32 500.36 11 499 C13.64 499.33 16.28 499.66 19 500 C19 499.34 19 498.68 19 498 C22.96 498.33 26.92 498.66 31 499 C31 498.34 31 497.68 31 497 C31.56847656 497.08378906 32.13695312 497.16757812 32.72265625 497.25390625 C38.83665579 498.06026011 44.07172131 497.9760929 50 496 C50.928125 496.165 51.85625 496.33 52.8125 496.5 C56.18059594 497.02832877 58.68787667 496.70974071 62 496 C62 495.34 62 494.68 62 494 C64.31 494.33 66.62 494.66 69 495 C69 494.34 69 493.68 69 493 C69.83144531 493.29390625 69.83144531 493.29390625 70.6796875 493.59375 C73.60607257 494.10611372 75.3331603 493.46672658 78.125 492.5 C79.73261177 491.94663809 81.35646509 491.43522179 83 491 C83.66 491.33 84.32 491.66 85 492 C85.76570313 491.01773438 85.76570313 491.01773438 86.546875 490.015625 C89.88201054 487.2752907 91.99571776 487.59243399 96.25 487.75 C97.51328125 487.78609375 98.7765625 487.8221875 100.078125 487.859375 C101.04234375 487.90578125 102.0065625 487.9521875 103 488 C103.33 486.68 103.66 485.36 104 484 C105.11375 484.309375 105.11375 484.309375 106.25 484.625 C109.36917451 485.05034198 110.35456158 484.55077425 113 483 C113.66 483 114.32 483 115 483 C115.99 481.02 116.98 479.04 118 477 C118.845625 477.12375 119.69125 477.2475 120.5625 477.375 C124.86818153 476.90528929 126.36426463 475.34923232 129.38671875 472.41015625 C131 471 131 471 134 470 C134.33 469.34 134.66 468.68 135 468 C136.98 468.33 138.96 468.66 141 469 C141.33 468.01 141.66 467.02 142 466 C142.99 466 143.98 466 145 466 C145 465.34 145 464.68 145 464 C145.66 464 146.32 464 147 464 C147.061875 463.05125 147.12375 462.1025 147.1875 461.125 C147.455625 460.09375 147.72375 459.0625 148 458 C150.375 456.8125 150.375 456.8125 153 456 C154.8354799 454.66621425 154.8354799 454.66621425 156 453 C156 452.01 156 451.02 156 450 C156.66 450 157.32 450 158 450 C158 449.34 158 448.68 158 448 C158.86625 447.938125 158.86625 447.938125 159.75 447.875 C163.11407813 446.56674739 164.11103691 443.98578036 166 441 C166.99 440.34 167.98 439.68 169 439 C170.2188121 435.44327821 170.2188121 435.44327821 171 432 C171.99 432 172.98 432 174 432 C173.67 430.02 173.34 428.04 173 426 C173.61875 425.79375 174.2375 425.5875 174.875 425.375 C177.91480655 423.40806635 178.18579383 421.46037622 179 418 C179.16857483 415.24934768 179.16857483 415.24934768 179 413 C179.99 412.67 180.98 412.34 182 412 C182.80212628 410.12612784 182.80212628 410.12612784 183.1875 407.9375 C183.34605469 407.20402344 183.50460937 406.47054688 183.66796875 405.71484375 C183.77753906 405.14894531 183.88710938 404.58304687 184 404 C184.66 404 185.32 404 186 404 C185.97679687 403.39671875 185.95359375 402.7934375 185.9296875 402.171875 C185.91164063 401.37265625 185.89359375 400.5734375 185.875 399.75 C185.84019531 398.56664062 185.84019531 398.56664062 185.8046875 397.359375 C186.01859306 394.77539583 186.8387377 393.28506452 188 391 C187.69196545 387.81477796 187.69196545 387.81477796 187 385 C187.99 384.67 188.98 384.34 190 384 C189.814375 382.948125 189.62875 381.89625 189.4375 380.8125 C189.04151227 377.36174976 189.28440316 375.30963541 190 372 C189.835 371.401875 189.67 370.80375 189.5 370.1875 C188.95603907 367.80767095 189.18249904 366.33106927 189.5625 363.9375 C190.43262325 359.95214345 190.43262325 359.95214345 188 357 C187.91015625 355.0546875 187.91015625 355.0546875 188.0625 352.875 C188.20425116 347.7969732 186.85857881 343.67963593 185 339 C185.66 339 186.32 339 187 339 C186.85950482 337.52031676 186.71245174 336.04125484 186.5625 334.5625 C186.48128906 333.73878906 186.40007812 332.91507813 186.31640625 332.06640625 C186.21069185 330.01337975 186.21069185 330.01337975 185 329 C185.309375 328.1028125 185.309375 328.1028125 185.625 327.1875 C186.27336035 324.92182206 186.27336035 324.92182206 184.6875 323.0625 C183.8521875 322.0415625 183.8521875 322.0415625 183 321 C182.28837557 319.35202764 181.60968047 317.68834592 181 316 C180.34 316 179.68 316 179 316 C179.33 314.02 179.66 312.04 180 310 C179.01 309.67 178.02 309.34 177 309 C177 306.69 177 304.38 177 302 C175.68 301.67 174.36 301.34 173 301 C173.20625 300.443125 173.4125 299.88625 173.625 299.3125 C174.10695211 296.340462 173.26565028 294.68020059 172 292 C172.66 292 173.32 292 174 292 C173.67 291.34 173.34 290.68 173 290 C172.34 290.33 171.68 290.66 171 291 C171 289.02 171 287.04 171 285 C169.68 285 168.36 285 167 285 C167 282 167 282 168 279 C165.96731398 276.83656989 165.96731398 276.83656989 163 275 C162.34 275.33 161.68 275.66 161 276 C161.185625 275.4225 161.37125 274.845 161.5625 274.25 C162.04023546 271.79307475 161.75729364 270.35602466 161 268 C160.34 268 159.68 268 159 268 C159 268.66 159 269.32 159 270 C158.34 269.67 157.68 269.34 157 269 C157.33 266.03 157.66 263.06 158 260 C157.34 260.66 156.68 261.32 156 262 C153.375 262.625 153.375 262.625 151 263 C150.67 262.01 150.34 261.02 150 260 C148.68 260.33 147.36 260.66 146 261 C145.24355192 258.27678692 144.82968488 256.54191176 145.6875 253.8125 C147.22595242 251.68797047 148.58896173 250.96441531 151 250 C151 248.68 151 247.36 151 246 C153 244.25 153 244.25 155 243 C154.67 241.35 154.34 239.7 154 238 C155.65 238 157.3 238 159 238 C158.9071875 236.576875 158.9071875 236.576875 158.8125 235.125 C158.874375 234.09375 158.93625 233.0625 159 232 C160.485 231.01 160.485 231.01 162 230 C162 229.319375 162 228.63875 162 227.9375 C162 225.02650265 162.46447643 223.3877568 163.4375 220.6875 C165.31349568 215.35291511 167.07437548 209.53166794 165 204 C165.66 204 166.32 204 167 204 C168.00956638 200.97130085 167.99515084 199.80526271 167.5625 196.75 C167.17511489 193.77681931 167.01371835 191.14946229 167.0625 188.125 C167.27694803 184.83264113 167.27694803 184.83264113 165 182 C165.375 179.3125 165.375 179.3125 166 177 C165.01 176.67 164.02 176.34 163 176 C163.20625 174.88625 163.4125 173.7725 163.625 172.625 C163.74875 171.42875 163.8725 170.2325 164 169 C163.34 168.34 162.68 167.68 162 167 C162.33 166.01 162.66 165.02 163 164 C162.60602665 161.36195411 162.60602665 161.36195411 162 159 C160.515 159.495 160.515 159.495 159 160 C158.87625 159.030625 158.7525 158.06125 158.625 157.0625 C158.41875 156.051875 158.2125 155.04125 158 154 C157.34 153.67 156.68 153.34 156 153 C155.60828247 151.34608154 155.27942455 149.67654729 155 148 C154.67 147.01 154.34 146.02 154 145 C153.01 144.67 152.02 144.34 151 144 C151 141.69 151 139.38 151 137 C150.01 136.67 149.02 136.34 148 136 C146.66666667 134 145.33333333 132 144 130 C143.01 129.67 142.02 129.34 141 129 C141 128.01 141 127.02 141 126 C140.01 125.67 139.02 125.34 138 125 C137.67 124.34 137.34 123.68 137 123 C136.34 123 135.68 123 135 123 C134.38125 122.360625 133.7625 121.72125 133.125 121.0625 C130.96479217 118.96582769 129.91223279 118.41603326 127 118 C127 117.34 127 116.68 127 116 C128.485 115.505 128.485 115.505 130 115 C129.01 114.34 128.02 113.68 127 113 C126.34 113.66 125.68 114.32 125 115 C122.9375 114.75 122.9375 114.75 121 114 C120.67 113.34 120.34 112.68 120 112 C118.35767228 111.27544365 116.68375165 110.62225605 115 110 C113.7264543 109.46474166 112.45565616 108.9229052 111.1875 108.375 C110.135625 107.92125 109.08375 107.4675 108 107 C108 106.34 108 105.68 108 105 C106.68 105 105.36 105 104 105 C104 105.99 104 106.98 104 108 C103.484375 107.484375 102.96875 106.96875 102.4375 106.4375 C99.60458089 104.76680411 98.39551199 105.03720404 95.265625 105.68359375 C91.19696767 106.25180279 87.08358746 105.90580725 82.98828125 105.7421875 C79.67494016 106.02804438 78.4004664 106.76890957 76 109 C75.67 108.34 75.34 107.68 75 107 C75 107.99 75 108.98 75 110 C75.66 110 76.32 110 77 110 C77 110.66 77 111.32 77 112 C76.113125 111.814375 75.22625 111.62875 74.3125 111.4375 C71.14821189 111.01957516 69.05160358 111.19222258 66 112 C65.67 113.32 65.34 114.64 65 116 C63.35 116.33 61.7 116.66 60 117 C59.67 118.32 59.34 119.64 59 121 C58.01 120.67 57.02 120.34 56 120 C56 120.66 56 121.32 56 122 C55.01 122.33 54.02 122.66 53 123 C52.26676204 125.01508358 52.26676204 125.01508358 52 127 C50.02 127.495 50.02 127.495 48 128 C48 129.65 48 131.3 48 133 C47.01 133 46.02 133 45 133 C44.67 134.32 44.34 135.64 44 137 C43.34 137 42.68 137 42 137 C41.34 138.093125 40.68 139.18625 40 140.3125 C39.443125 141.23482422 39.443125 141.23482422 38.875 142.17578125 C37.78376001 144.11361926 37.78376001 144.11361926 38 147 C37.01 147.33 36.02 147.66 35 148 C35.04125 148.680625 35.0825 149.36125 35.125 150.0625 C34.97299716 153.63456671 34.16730157 156.62779545 33 160 C32.01 160.495 32.01 160.495 31 161 C31 163.31 31 165.62 31 168 C30.01 168.33 29.02 168.66 28 169 C28.33 169.99 28.66 170.98 29 172 C29.99 172 30.98 172 32 172 C32 172.66 32 173.32 32 174 C32.886875 174.433125 33.77375 174.86625 34.6875 175.3125 C42.69620253 179.39240506 42.69620253 179.39240506 44 182 C44.99 182.33 45.98 182.66 47 183 C47.2165625 183.8971875 47.2165625 183.8971875 47.4375 184.8125 C47.82522928 187.19305967 47.82522928 187.19305967 50.0625 188.75 C52.44152771 191.51274186 52.46108788 193.44901283 52.25390625 197.03125 C51.90660948 199.72413573 51.4675387 201.69386776 50 204 C47.375 204.8125 47.375 204.8125 45 205 C44.67 206.65 44.34 208.3 44 210 C43.4225 210.0825 42.845 210.165 42.25 210.25 C39.8322949 210.8695627 39.8322949 210.8695627 38 213 C35.82467143 215.17532857 34.89725531 215.3662254 32 216 C31.401875 216.495 30.80375 216.99 30.1875 217.5 C27.23230588 219.52641883 24.52127574 219.55984053 21 220 C20.34 220.350625 19.68 220.70125 19 221.0625 C15.98985538 222.47350529 13.27135521 222.18174196 10 222 C9.34 221.67 8.68 221.34 8 221 C6.33380554 220.9603287 4.66608987 220.95615553 3 221 C2.67 220.34 2.34 219.68 2 219 C1.113125 219.12375 0.22625 219.2475 -0.6875 219.375 C-5.2996863 218.8528657 -6.14287974 216.49997232 -9 213 C-10.99422795 212.63371323 -12.99453311 212.29868656 -15 212 C-17.125 209.5625 -17.125 209.5625 -19 207 C-19.639375 206.71125 -20.27875 206.4225 -20.9375 206.125 C-24.19664297 204.34728565 -26.38044103 201.32046565 -28 198 C-27.67 197.01 -27.34 196.02 -27 195 C-27.87914688 192.3430809 -27.87914688 192.3430809 -29 190 C-28.34 190 -27.68 190 -27 190 C-26.67 188.35 -26.34 186.7 -26 185 C-25.01 184.67 -24.02 184.34 -23 184 C-23 183.34 -23 182.68 -23 182 C-22.34 182 -21.68 182 -21 182 C-20.38125 181.1028125 -20.38125 181.1028125 -19.75 180.1875 C-17.54544761 177.43180951 -15.14074161 176.53695866 -12 175 C-11.01 173.515 -11.01 173.515 -10 172 C-9.67 172 -9.34 172 -9 172 C-9 170.35 -9 168.7 -9 167 C-9.66 166.67 -10.32 166.34 -11 166 C-11 165.01 -11 164.02 -11 163 C-11.66 162.01 -12.32 161.02 -13 160 C-13 158.68 -13 157.36 -13 156 C-13.32550502 154.33178677 -13.65846063 152.66500443 -14 151 C-14 150.01 -14 149.02 -14 148 C-14.66 147.67 -15.32 147.34 -16 147 C-16 146.01 -16 145.02 -16 144 C-16.99 144.495 -16.99 144.495 -18 145 C-17.62875 144.443125 -17.2575 143.88625 -16.875 143.3125 C-15.70484137 140.94283647 -15.70484137 140.94283647 -16.875 138.25 C-17.24625 137.5075 -17.6175 136.765 -18 136 C-18.99 136.33 -19.98 136.66 -21 137 C-21.12375 135.88625 -21.2475 134.7725 -21.375 133.625 C-21.6465813 129.96896323 -21.6465813 129.96896323 -24 128 C-24.66 128 -25.32 128 -26 128 C-26.433125 126.5459375 -26.433125 126.5459375 -26.875 125.0625 C-27.64214682 121.89335797 -27.64214682 121.89335797 -30 121 C-30.99 121.33 -31.98 121.66 -33 122 C-33.99 119.525 -33.99 119.525 -35 117 C-36.98 117 -38.96 117 -41 117 C-41.495 115.02 -41.495 115.02 -42 113 C-43.1446875 113.1546875 -43.1446875 113.1546875 -44.3125 113.3125 C-45.199375 113.209375 -46.08625 113.10625 -47 113 C-48.8125 110.5 -48.8125 110.5 -50 108 C-51.32 108.33 -52.64 108.66 -54 109 C-54 108.34 -54 107.68 -54 107 C-55.794375 107.061875 -55.794375 107.061875 -57.625 107.125 C-61.44951626 107.14527129 -64.37826356 106.23468288 -68 105 C-70.2875976 105.27640014 -70.2875976 105.27640014 -72 106 C-72 105.01 -72 104.02 -72 103 C-72.66 103 -73.32 103 -74 103 Z M41 119 C42 121 42 121 42 121 Z M-116 123 C-116.33 123.66 -116.66 124.32 -117 125 C-116.34 125 -115.68 125 -115 125 C-115.33 124.34 -115.66 123.68 -116 123 Z M-182 139 C-181.67 139.66 -181.34 140.32 -181 141 C-180.67 140.34 -180.34 139.68 -180 139 C-180.66 139 -181.32 139 -182 139 Z M159 143 C159 143.66 159 144.32 159 145 C159.66 144.67 160.32 144.34 161 144 C160.34 143.67 159.68 143.34 159 143 Z M165 162 C165 162.66 165 163.32 165 164 C165.66 163.67 166.32 163.34 167 163 C166.34 162.67 165.68 162.34 165 162 Z M-4.421875 184.90625 C-6 186 -6 186 -10 186 C-11.01866229 187.65532623 -12.01810813 189.32260138 -13 191 C-15.1875 191.8125 -15.1875 191.8125 -17 192 C-16.07656714 195.17894414 -15.54206369 196.66326346 -12.6796875 198.44140625 C-11.75414062 198.81136719 -10.82859375 199.18132812 -9.875 199.5625 C-6.44768804 200.97348428 -3.21176137 202.40423672 0 204.25 C7.56415061 208.03207531 15.167961 207.45690879 23.00390625 204.88671875 C25.17340108 204.06603129 25.17340108 204.06603129 27 202 C27.763125 201.87625 28.52625 201.7525 29.3125 201.625 C32.77229598 200.82039628 34.49862382 199.50137618 37 197 C37.87943404 194.36539052 37.87943404 194.36539052 38 192 C30.493462 186.52043405 30.493462 186.52043405 22 184 C21.505 183.01 21.505 183.01 21 182 C13.019676 179.339892 2.16433844 179.36644431 -4.421875 184.90625 Z M41 194 C42 196 42 196 42 196 Z M-189 256 C-188 258 -188 258 -188 258 Z M205 267 C206 269 206 269 206 269 Z M184 318 C185 320 185 320 185 320 Z M219 321 C220 323 220 323 220 323 Z M228 342 C229 344 229 344 229 344 Z M-208 385 C-207.34 386.32 -206.68 387.64 -206 389 C-206 388.01 -206 387.02 -206 386 C-206.66 385.67 -207.32 385.34 -208 385 Z M-174 388 C-173.34 388.66 -172.68 389.32 -172 390 C-172 389.34 -172 388.68 -172 388 C-172.66 388 -173.32 388 -174 388 Z M-190 403 C-189 405 -189 405 -189 405 Z M192 404 C193 406 193 406 193 406 Z M216 413 C216 413.66 216 414.32 216 415 C216.66 414.67 217.32 414.34 218 414 C217.34 413.67 216.68 413.34 216 413 Z M194 415 C195 417 195 417 195 417 Z M191 428 C191 429.32 191 430.64 191 432 C191.66 431.34 192.32 430.68 193 430 C192.34 429.34 191.68 428.68 191 428 Z M-173 429 C-172.01 429.99 -171.02 430.98 -170 432 C-170 431.01 -170 430.02 -170 429 C-170.99 429 -171.98 429 -173 429 Z M-167 443 C-166 445 -166 445 -166 445 Z M169 446 C169.66 446.66 170.32 447.32 171 448 C171 447.34 171 446.68 171 446 C170.34 446 169.68 446 169 446 Z M-142 469 C-141 471 -141 471 -141 471 Z M174 470 C174 470.66 174 471.32 174 472 C174.66 471.67 175.32 471.34 176 471 C175.34 470.67 174.68 470.34 174 470 Z M140 473 C141 475 141 475 141 475 Z M146 486 C144.64644661 488.11785113 144.64644661 488.11785113 146 491 C144.88625 490.938125 143.7725 490.87625 142.625 490.8125 C140.830625 490.9053125 140.830625 490.9053125 139 491 C138.34 491.99 137.68 492.98 137 494 C135.10618587 494.26579847 133.20940835 494.52046976 131.3046875 494.69140625 C127.40062542 495.21415355 123.58307682 496.36134999 120 498 C119.67 498.66 119.34 499.32 119 500 C118.236875 499.95875 117.47375 499.9175 116.6875 499.875 C113.77281584 499.77919176 113.77281584 499.77919176 111 502 C110.21625 501.979375 109.4325 501.95875 108.625 501.9375 C105.29603693 502.01676103 103.78824173 503.23184671 101 505 C99.01548229 505.71143088 97.01797888 506.38991336 95 507 C94.67 506.01 94.34 505.02 94 504 C93.67 504.99 93.34 505.98 93 507 C91.68 507 90.36 507 89 507 C88.34 506.01 87.68 505.02 87 504 C86.01 506.475 86.01 506.475 85 509 C84.01 509 83.02 509 82 509 C82 509.66 82 510.32 82 511 C83.546875 511.185625 83.546875 511.185625 85.125 511.375 C89 512 89 512 91.8125 513 C96.07599133 514.33756591 100.51487157 515.2856278 105 515 C106.64607508 513.5416788 106.64607508 513.5416788 108 512 C110.4375 512.3125 110.4375 512.3125 113 513 C114.32 513 115.64 513 117 513 C117.94875 513.639375 118.8975 514.27875 119.875 514.9375 C123.12176483 517.08036479 125.19571102 517.56769443 129 518 C129.99 518.495 129.99 518.495 131 519 C131.66 518.34 132.32 517.68 133 517 C135.125 517.375 135.125 517.375 137 518 C137.797837 511.30386804 138.12910853 504.74233419 138 498 C144.15234375 498.5859375 144.15234375 498.5859375 146 499 C146.495 499.99 146.495 499.99 147 501 C147.66 501 148.32 501 149 501 C149.99 502.98 149.99 502.98 151 505 C154.3 505 157.6 505 161 505 C161.66 503.02 162.32 501.04 163 499 C162.401875 498.62875 161.80375 498.2575 161.1875 497.875 C159 496 159 496 157.5 492.875 C156.32179126 489.93194259 156.32179126 489.93194259 154.125 489.0625 C151.61443409 488.98865983 149.43126433 489.39218392 147 490 C146.505 488.02 146.505 488.02 146 486 Z M-132 488 C-132.66 489.65 -133.32 491.3 -134 493 C-134.66 493 -135.32 493 -136 493 C-138.85666351 495.9240774 -141 498.66349941 -141 502.8125 C-140.08370558 505.32416207 -140.08370558 505.32416207 -137 507 C-134.04725901 507 -132.50941597 506.56108169 -129.8125 505.5 C-129.09707031 505.2215625 -128.38164062 504.943125 -127.64453125 504.65625 C-127.10183594 504.4396875 -126.55914062 504.223125 -126 504 C-126 503.34 -126 502.68 -126 502 C-118.57142857 499.85714286 -118.57142857 499.85714286 -115 499 C-114.34 501.31 -113.68 503.62 -113 506 C-113.33 506.33 -113.66 506.66 -114 507 C-114.36548454 512.37795314 -114.36548454 512.37795314 -112 517 C-108.94091587 517.81584568 -108.94091587 517.81584568 -106 518 C-106 517.34 -106 516.68 -106 516 C-105.113125 516.061875 -104.22625 516.12375 -103.3125 516.1875 C-100.01653914 516.26628371 -100.01653914 516.26628371 -97.6875 514.5625 C-93.99389777 512.41505684 -90.2630504 511.83984963 -86 512 C-84.66412219 512.66155325 -83.33066673 513.32802658 -82 514 C-78.31796085 513.68873287 -78.31796085 513.68873287 -75 513 C-74.505 513.99 -74.505 513.99 -74 515 C-73.01 514.34 -72.02 513.68 -71 513 C-68.35982365 512.18220159 -65.69729409 511.6190511 -63 511 C-63 509.68 -63 508.36 -63 507 C-67.39253773 505.43727811 -67.39253773 505.43727811 -72 505 C-76.7933754 504.55616894 -80.03324546 503.76470771 -84 501 C-84 501.66 -84 502.32 -84 503 C-88.66714289 501.16974789 -92.18765077 499.3502463 -96 496 C-96 496.99 -96 497.98 -96 499 C-96.474375 498.54625 -96.94875 498.0925 -97.4375 497.625 C-99.9643899 496.02258201 -101.43376172 495.60779002 -104.3125 495.0625 C-108.91630272 494.16290636 -112.01681697 492.45118956 -116 490 C-118.59915538 488.80972016 -118.59915538 488.80972016 -121 488 C-121.61875 487.773125 -122.2375 487.54625 -122.875 487.3125 C-126.01886533 486.85016686 -128.89073903 487.46185868 -132 488 Z M188 504 C189 506 189 506 189 506 Z M-61 507 C-61 507.99 -61 508.98 -61 510 C-60.34 510 -59.68 510 -59 510 C-59.33 509.01 -59.66 508.02 -60 507 C-60.33 507 -60.66 507 -61 507 Z M183 507 C182.67 507.66 182.34 508.32 182 509 C182.66 509 183.32 509 184 509 C183.67 508.34 183.34 507.68 183 507 Z M190 505 C190 505.99 190 506.98 190 508 C188.68 507.67 187.36 507.34 186 507 C185.01 508.32 184.02 509.64 183 511 C183.33 511.66 183.66 512.32 184 513 C184.66 512.67 185.32 512.34 186 512 C186 511.34 186 510.68 186 510 C188.31 510 190.62 510 193 510 C192.67 508.35 192.34 506.7 192 505 C191.34 505 190.68 505 190 505 Z M-58 508 C-57 510 -57 510 -57 510 Z M180 513 C179.67 514.65 179.34 516.3 179 518 C179.66 517.01 180.32 516.02 181 515 C180.67 514.34 180.34 513.68 180 513 Z M150 519 C151 522 151 522 151 522 Z M151 523 C151 524.32 151 525.64 151 527 C151.66 527 152.32 527 153 527 C153 525.68 153 524.36 153 523 C152.34 523 151.68 523 151 523 Z M43 526 C43 526.99 43 527.98 43 529 C43.66 528.34 44.32 527.68 45 527 C44.34 526.67 43.68 526.34 43 526 Z M82 526 C82 526.66 82 527.32 82 528 C82.99 527.67 83.98 527.34 85 527 C84.01 526.67 83.02 526.34 82 526 Z " transform="translate(293,14)" style="fill: #000000;"/></svg>